<svg width="395" height="207" viewBox="0 0 395 207" fill="none" xmlns="http://www.w3.org/2000/svg">
<path fill-rule="evenodd" clip-rule="evenodd" d="M68.1477 57.2719C83.9628 57.2719 96.7836 44.4511 96.7836 28.6359C96.7836 12.8207 83.9628 0 68.1477 0C52.3325 0 39.5117 12.8207 39.5117 28.6359C39.5117 44.4511 52.3325 57.2719 68.1477 57.2719ZM68.5062 41.8083C75.8303 41.8083 81.7677 35.8709 81.7677 28.5468C81.7677 21.2226 75.8303 15.2852 68.5062 15.2852C61.182 15.2852 55.2446 21.2226 55.2446 28.5468C55.2446 35.8709 61.182 41.8083 68.5062 41.8083Z" fill="black"/>
<path d="M85.5052 154.828L72.6035 120.408L132.847 28.9854L85.5052 154.828ZM66.4235 128.741L80.6744 167.629L66.4235 206.034L0 28.9854L66.4235 128.983V128.741Z" fill="black"/>
<path d="M114.013 206.034V141.06H132.853V206.034H114.013Z" fill="black"/>
<path d="M180.651 207C169.661 207 164.83 204.706 158.792 200.72V186.469C164.589 190.213 173.405 192.75 181.376 192.75C190.071 192.75 193.332 190.455 193.332 186.832C193.332 176.204 154.082 187.073 154.082 161.108C154.082 148.789 165.193 140.094 184.154 140.094C193.091 140.094 196.714 140.456 202.873 144.079V159.175C196.472 155.552 190.071 154.345 184.154 154.345C175.7 154.345 172.077 157.002 172.077 160.383C172.077 171.494 211.327 160.745 211.327 186.349C211.327 198.426 200.095 207 180.651 207Z" fill="black"/>
<path d="M268.24 189.609V204.102C264.99 206.034 262.696 207 257.974 207C242.637 207 233.7 199.15 233.7 183.692V157.002H223.676V142.509H233.7L252.54 126.688V142.509H268.723V157.002H252.54V183.45C252.54 189.006 255.559 192.025 260.631 192.025C263.409 192.025 266.187 191.179 268.24 189.609Z" fill="black"/>
<path d="M292.342 206.034V141.06H311.182V206.034H292.342Z" fill="black"/>
<path d="M363.328 140.094C383.135 140.094 394.608 149.272 394.608 168.958V206.034H376.975V197.943C373.473 203.86 366.71 207 357.169 207C341.952 207 332.894 198.546 332.894 187.315C332.894 175.842 340.986 167.871 360.792 167.871H375.768C375.768 159.779 370.937 155.069 360.792 155.069C353.908 155.069 346.783 157.364 342.073 161.108V145.649C347.597 141.543 355.688 140.094 363.328 140.094ZM361.879 194.32C368.159 194.32 373.594 191.421 375.768 185.503V178.861H362.845C354.029 178.861 351.251 182.122 351.251 186.469C351.251 191.179 355.237 194.32 361.879 194.32Z" fill="black"/>
</svg>
